<mxfile host="app.diagrams.net" modified="2023-09-29T12:58:25.586Z" agent="Mozilla/5.0 (X11; Linux x86_64; rv:103.0) Gecko/20100101 Firefox/103.0" etag="6uOFdlG5iB8ba0MNCLiK" version="22.0.0" type="github">
  <diagram id="R2lEEEUBdFMjLlhIrx00" name="Page-1">
    <mxGraphModel dx="1434" dy="689" grid="1" gridSize="10" guides="1" tooltips="1" connect="1" arrows="1" fold="1" page="1" pageScale="1" pageWidth="850" pageHeight="1100" math="0" shadow="0" extFonts="Permanent Marker^https://fonts.googleapis.com/css?family=Permanent+Marker">
      <root>
        <mxCell id="0" />
        <mxCell id="1" parent="0" />
        <mxCell id="MAv-HCRPTHPueGM9JdE9-1" value="FLORICULTURA" style="rounded=0;whiteSpace=wrap;html=1;" vertex="1" parent="1">
          <mxGeometry x="490" y="60" width="120" height="60" as="geometry" />
        </mxCell>
        <mxCell id="MAv-HCRPTHPueGM9JdE9-2" value="" style="endArrow=none;dashed=1;html=1;rounded=0;" edge="1" parent="1">
          <mxGeometry width="50" height="50" relative="1" as="geometry">
            <mxPoint x="549.5" y="180" as="sourcePoint" />
            <mxPoint x="549.5" y="120" as="targetPoint" />
          </mxGeometry>
        </mxCell>
        <mxCell id="MAv-HCRPTHPueGM9JdE9-3" value="TER" style="rhombus;whiteSpace=wrap;html=1;" vertex="1" parent="1">
          <mxGeometry x="510" y="180" width="80" height="80" as="geometry" />
        </mxCell>
        <mxCell id="MAv-HCRPTHPueGM9JdE9-4" value="1" style="text;html=1;strokeColor=none;fillColor=none;align=center;verticalAlign=middle;whiteSpace=wrap;rounded=0;" vertex="1" parent="1">
          <mxGeometry x="550" y="180" width="60" height="30" as="geometry" />
        </mxCell>
        <mxCell id="MAv-HCRPTHPueGM9JdE9-5" value="N" style="text;html=1;strokeColor=none;fillColor=none;align=center;verticalAlign=middle;whiteSpace=wrap;rounded=0;" vertex="1" parent="1">
          <mxGeometry x="550" y="230" width="60" height="30" as="geometry" />
        </mxCell>
        <mxCell id="MAv-HCRPTHPueGM9JdE9-6" value="PRODUTOS" style="swimlane;whiteSpace=wrap;html=1;" vertex="1" parent="1">
          <mxGeometry x="450" y="320" width="200" height="200" as="geometry" />
        </mxCell>
        <mxCell id="MAv-HCRPTHPueGM9JdE9-8" value="&lt;div&gt;NOME&lt;/div&gt;&lt;div&gt;TIPO&lt;/div&gt;&lt;div&gt;PREÇO&lt;/div&gt;&lt;div&gt;Q. EM ESTOQUE&lt;br&gt;&lt;/div&gt;" style="text;html=1;align=center;verticalAlign=middle;resizable=0;points=[];autosize=1;strokeColor=none;fillColor=none;" vertex="1" parent="MAv-HCRPTHPueGM9JdE9-6">
          <mxGeometry x="40" y="70" width="120" height="70" as="geometry" />
        </mxCell>
        <mxCell id="MAv-HCRPTHPueGM9JdE9-7" value="" style="endArrow=none;dashed=1;html=1;rounded=0;" edge="1" parent="1">
          <mxGeometry width="50" height="50" relative="1" as="geometry">
            <mxPoint x="549" y="320" as="sourcePoint" />
            <mxPoint x="549" y="260" as="targetPoint" />
          </mxGeometry>
        </mxCell>
        <mxCell id="MAv-HCRPTHPueGM9JdE9-9" value="" style="endArrow=none;dashed=1;html=1;rounded=0;" edge="1" parent="1">
          <mxGeometry width="50" height="50" relative="1" as="geometry">
            <mxPoint x="420" y="89.5" as="sourcePoint" />
            <mxPoint x="490" y="89.5" as="targetPoint" />
          </mxGeometry>
        </mxCell>
        <mxCell id="MAv-HCRPTHPueGM9JdE9-10" value="TER" style="rhombus;whiteSpace=wrap;html=1;" vertex="1" parent="1">
          <mxGeometry x="340" y="50" width="80" height="80" as="geometry" />
        </mxCell>
        <mxCell id="MAv-HCRPTHPueGM9JdE9-11" value="1" style="text;html=1;strokeColor=none;fillColor=none;align=center;verticalAlign=middle;whiteSpace=wrap;rounded=0;" vertex="1" parent="1">
          <mxGeometry x="395" y="60" width="60" height="30" as="geometry" />
        </mxCell>
        <mxCell id="MAv-HCRPTHPueGM9JdE9-12" value="N" style="text;html=1;strokeColor=none;fillColor=none;align=center;verticalAlign=middle;whiteSpace=wrap;rounded=0;" vertex="1" parent="1">
          <mxGeometry x="320" y="50" width="60" height="30" as="geometry" />
        </mxCell>
        <mxCell id="MAv-HCRPTHPueGM9JdE9-13" value="" style="endArrow=none;dashed=1;html=1;rounded=0;" edge="1" parent="1">
          <mxGeometry width="50" height="50" relative="1" as="geometry">
            <mxPoint x="270" y="90" as="sourcePoint" />
            <mxPoint x="340" y="90" as="targetPoint" />
          </mxGeometry>
        </mxCell>
        <mxCell id="MAv-HCRPTHPueGM9JdE9-14" value="CLIENTES" style="swimlane;whiteSpace=wrap;html=1;" vertex="1" parent="1">
          <mxGeometry x="70" y="10" width="200" height="200" as="geometry" />
        </mxCell>
        <mxCell id="MAv-HCRPTHPueGM9JdE9-15" value="&lt;div&gt;RG&lt;/div&gt;&lt;div&gt;NOME&lt;/div&gt;&lt;div&gt;TELEFONE&lt;/div&gt;&lt;div&gt;ENDEREÇO&lt;br&gt;&lt;/div&gt;" style="text;html=1;align=center;verticalAlign=middle;resizable=0;points=[];autosize=1;strokeColor=none;fillColor=none;" vertex="1" parent="1">
          <mxGeometry x="125" y="78" width="90" height="70" as="geometry" />
        </mxCell>
        <mxCell id="MAv-HCRPTHPueGM9JdE9-16" value="COMPRA" style="rhombus;whiteSpace=wrap;html=1;" vertex="1" parent="1">
          <mxGeometry x="100" y="340" width="140" height="90" as="geometry" />
        </mxCell>
        <mxCell id="MAv-HCRPTHPueGM9JdE9-17" value="" style="endArrow=none;dashed=1;html=1;rounded=0;" edge="1" parent="1">
          <mxGeometry width="50" height="50" relative="1" as="geometry">
            <mxPoint x="169.5" y="340" as="sourcePoint" />
            <mxPoint x="169.5" y="210" as="targetPoint" />
          </mxGeometry>
        </mxCell>
        <mxCell id="MAv-HCRPTHPueGM9JdE9-18" value="" style="endArrow=none;dashed=1;html=1;rounded=0;exitX=1;exitY=0.5;exitDx=0;exitDy=0;" edge="1" parent="1" source="MAv-HCRPTHPueGM9JdE9-16">
          <mxGeometry width="50" height="50" relative="1" as="geometry">
            <mxPoint x="260" y="420" as="sourcePoint" />
            <mxPoint x="450" y="385" as="targetPoint" />
          </mxGeometry>
        </mxCell>
        <mxCell id="MAv-HCRPTHPueGM9JdE9-19" value="N" style="text;html=1;strokeColor=none;fillColor=none;align=center;verticalAlign=middle;whiteSpace=wrap;rounded=0;" vertex="1" parent="1">
          <mxGeometry x="200" y="350" width="60" height="30" as="geometry" />
        </mxCell>
        <mxCell id="MAv-HCRPTHPueGM9JdE9-20" value="N" style="text;html=1;strokeColor=none;fillColor=none;align=center;verticalAlign=middle;whiteSpace=wrap;rounded=0;" vertex="1" parent="1">
          <mxGeometry x="210" y="400" width="60" height="30" as="geometry" />
        </mxCell>
        <mxCell id="MAv-HCRPTHPueGM9JdE9-21" value="N" style="text;html=1;strokeColor=none;fillColor=none;align=center;verticalAlign=middle;whiteSpace=wrap;rounded=0;" vertex="1" parent="1">
          <mxGeometry x="110" y="300" width="60" height="30" as="geometry" />
        </mxCell>
        <mxCell id="MAv-HCRPTHPueGM9JdE9-22" value="1" style="text;html=1;strokeColor=none;fillColor=none;align=center;verticalAlign=middle;whiteSpace=wrap;rounded=0;" vertex="1" parent="1">
          <mxGeometry x="170" y="300" width="60" height="30" as="geometry" />
        </mxCell>
      </root>
    </mxGraphModel>
  </diagram>
</mxfile>
